<?xml version="1.0" encoding="utf-8"?>
<!-- Generator: Adobe Illustrator 21.1.0, SVG Export Plug-In . SVG Version: 6.00 Build 0)  -->
<svg version="1.1" id="Layer_1" xmlns="http://www.w3.org/2000/svg" xmlns:xlink="http://www.w3.org/1999/xlink" x="0px" y="0px"
     viewBox="0 0 425.2 595.3" style="enable-background:new 0 0 425.2 595.3;" xml:space="preserve">
<style type="text/css">
	.st0{fill:#F95E08;}
	.st1{fill:#212121;}
</style>
    <g>
	<g>
		<circle class="st0" cx="273.7" cy="333.9" r="24.5"/>
        <circle class="st0" cx="228.2" cy="290.9" r="15.6"/>
	</g>
        <path class="st0" d="M342.4,364.4c-12.4,9.2-28,14.9-43.5,15.8c-28.1,1.8-55.5-8.5-80.9-20.7c-24.9-11.9-50.3-26.1-77.9-25.5
		c-19.7,0.5-37.9,8.5-55.1,18.6c-2.3,9.8-3.7,20-3.7,30.5c0,72.5,58.8,131.3,131.3,131.3c72.5,0,131.3-58.8,131.3-131.3
		C343.9,376.8,343.3,370.5,342.4,364.4z M128.5,395.9c0-9.9,8-17.8,17.8-17.8c9.9,0,17.8,8,17.8,17.8s-8,17.8-17.8,17.8
		C136.4,413.8,128.5,405.8,128.5,395.9z M163.2,447.8c-5.3,0-9.6-4.3-9.6-9.6c0-5.3,4.3-9.6,9.6-9.6s9.6,4.3,9.6,9.6
		C172.9,443.5,168.5,447.8,163.2,447.8z"/>
        <path class="st1" d="M320.6,218.6l7.7-27.1l-114.3-32.6l-7.9,27.9c-83.9,2.7-160.1,58.9-184.3,143.9
		c-30,105.4,31,215.1,136.4,245.2c105.4,30,215.1-31,245.2-136.4C427.9,353.5,391.8,264.7,320.6,218.6z M212.6,537.4
		c-21.6,0-42.1-4.6-60.7-12.8c-3.8-1.7-7.5-3.4-11.1-5.4c-2.1-1.2-4.2-2.4-6.3-3.6c-3.5-2.2-7-4.5-10.3-6.9
		c-6.4-4.7-12.5-9.8-18.1-15.4c-1.9-1.9-3.8-3.9-5.6-6c-2.7-3-5.2-6-7.6-9.2c-0.7-1-1.5-1.9-2.2-2.9c-18-24.8-28.7-55.4-28.7-88.4
		c0-23.4,5.3-45.5,14.8-65.3c2.1-4.4,4.4-8.7,7-12.8c12.6-20.7,30-38.1,50.7-50.7c4.1-2.5,8.4-4.8,12.8-7
		c19.8-9.5,41.9-14.8,65.3-14.8c33,0,63.6,10.7,88.4,28.7c1,0.7,2,1.4,2.9,2.2c3.2,2.4,6.2,5,9.2,7.6c2,1.8,4,3.7,6,5.6
		c5.6,5.6,10.7,11.7,15.4,18.1c2.4,3.3,4.8,6.8,6.9,10.3c1.3,2.1,2.5,4.2,3.6,6.3c2,3.6,3.7,7.3,5.4,11.1
		c8.2,18.6,12.8,39.1,12.8,60.7C363.2,470,295.8,537.4,212.6,537.4z"/>

        <rect x="210.2" y="120.9" transform="matrix(0.9617 0.2741 -0.2741 0.9617 49.1726 -71.7866)" class="st1" width="142.4" height="38.3"/>
        <g>
		<circle class="st0" cx="323.5" cy="93.9" r="17.8"/>
            <circle class="st0" cx="271.1" cy="65.8" r="10.4"/>
            <circle class="st0" cx="327" cy="20.4" r="10.4"/>
	</g>
</g>
</svg>
