<svg id="Layer_1" data-name="Layer 1" xmlns="http://www.w3.org/2000/svg" viewBox="0 0 425.2 595.28"><defs><style>.cls-1{fill:#fff;}.cls-2{fill:#f95e08;}</style></defs><title>Icon</title><path class="cls-1" d="M320,220.15l7.7-27-113.68-32.4-7.9,27.73C122.71,191.18,46.92,247,22.81,331.63c-29.88,104.82,30.87,214,135.69,243.89s214-30.87,243.89-135.69C426.74,354.41,390.89,266.09,320,220.15ZM212.6,528A141.51,141.51,0,1,1,354.11,386.45,141.51,141.51,0,0,1,212.6,528Z"/><circle class="cls-2" cx="325.01" cy="93.07" r="17.74"/><circle class="cls-2" cx="271.17" cy="328.71" r="18.39"/><circle class="cls-2" cx="237.07" cy="296.47" r="11.69"/><path class="cls-2" d="M322,369.31a69.45,69.45,0,0,1-36.66,13.35c-23.68,1.48-46.8-7.2-68.2-17.44-21-10-42.38-22-65.64-21.48-16.59.4-31.92,7.17-46.41,15.69A110.7,110.7,0,1,0,322,369.31ZM138.63,391.61a15.69,15.69,0,1,1,15.69,15.69A15.69,15.69,0,0,1,138.63,391.61Zm30.58,45.62a8.45,8.45,0,1,1,8.45-8.45A8.45,8.45,0,0,1,169.21,437.23Z"/><rect class="cls-1" x="212.84" y="113.82" width="141.7" height="38.13" transform="translate(47.3 -72.68) rotate(15.91)"/><circle class="cls-2" cx="272.82" cy="65.03" r="10.3"/><circle class="cls-2" cx="328.47" cy="18.44" r="10.3"/></svg>